<mxfile host="app.diagrams.net" modified="2024-03-26T16:52:21.016Z" agent="Mozilla/5.0 (Windows NT 10.0; Win64; x64; rv:124.0) Gecko/20100101 Firefox/124.0" version="24.2.0" etag="0oMIrX4zRjsxXCdHBLoo" type="github">
  <diagram name="Page-1" id="9AbPAYx_Ur40lodAAJXG">
    <mxGraphModel>
      <root>
        <mxCell id="0" />
        <mxCell id="1" parent="0" />
      </root>
    </mxGraphModel>
  </diagram>
</mxfile>
